# xmcd
# Track frame offsets:
# 150
# 17559
# 31255
# 48662
# 59937
# 79883
# 93225
# 111541
# 125688
# 137259
# 148583
# 169387
#
# Disc length: 2415 seconds
# Revision: 0
# Processed by: cddbd v1.5.2PL0 Copyright (c) Steve Scherf et al.
# Submitted via: VisiTrax 2.11.1.266 - For more info visit www.synapsa.com
#
DISCID=ae096d0c
DTITLE=John Fogerty-Blue Ridge Rangers - Rides Again
DYEAR=2009
DGENRE=Country
TTITLE0=Paradise
TTITLE1=Never Ending Song Of Love
TTITLE2=Garden Party
TTITLE3=I Don't Care (Just As Long As You Love Me)
TTITLE4=Back Home Again
TTITLE5=I'll Be There
TTITLE6=Change In The Weather
TTITLE7=Moody River
TTITLE8=Heaven's Just A Sin Away
TTITLE9=Fallin' Fallin' Fallin'
TTITLE10=Haunted House
TTITLE11=When Will I Be Loved
EXTD=
EXTT0=
EXTT1=
EXTT2=
EXTT3=
EXTT4=
EXTT5=
EXTT6=
EXTT7=
EXTT8=
EXTT9=
EXTT10=
EXTT11=
PLAYORDER=
